inDegrees=yes
name=ik_S49_A05_T01
DataType=double
version=3
OpenSimVersion=4.3-2021-08-27-4bc7ad9
endheader
time	pelvis_tilt	pelvis_list	pelvis_rotation	pelvis_tx	pelvis_ty	pelvis_tz	hip_flexion_r	hip_adduction_r	hip_rotation_r	knee_angle_r	knee_angle_r_beta	ankle_angle_r	subtalar_angle_r	mtp_angle_r	hip_flexion_l	hip_adduction_l	hip_rotation_l	knee_angle_l	knee_angle_l_beta	ankle_angle_l	subtalar_angle_l	mtp_angle_l	lumbar_extension	lumbar_bending	lumbar_rotation	arm_flex_r	arm_add_r	arm_rot_r	elbow_flex_r	pro_sup_r	wrist_flex_r	wrist_dev_r	arm_flex_l	arm_add_l	arm_rot_l	elbow_flex_l	pro_sup_l	wrist_flex_l	wrist_dev_l
16.81999999999973	-4.39004740726639	-7.021353896947084	35.24769312658105	0	0.9399999999999999	0	43.66431979422951	-10.6640543855316	-10.66161489532713	52.86498671019612	0.9226680771159677	0	0	0	43.66431979422951	-10.6640543855316	-10.66161489532713	52.86498671019612	0.9226680771159677	0	0	0	-5.540006490325576	-2.762679991736015	2.737892005094443	75.46177631586208	17.08345788778353	6.144970751349845	22.35540905417091	107.04588915097	0	0	52.57663851664987	0.7179935628140991	24.3400895038539	12.79459235642348	123.5092676870882	0	0
16.83999999999973	-4.402230752234797	-6.990886101351432	35.1714119080661	0	0.9399999999999999	0	43.6647107491315	-10.6633752136868	-10.66118095474787	52.86540533393389	0.9226753834785187	0	0	0	43.6647107491315	-10.6633752136868	-10.66118095474787	52.86540533393389	0.9226753834785187	0	0	0	-5.530655749631268	-2.73441319603302	2.761136445885121	75.23578208607634	16.79040087175114	5.976784164800601	22.55038550059733	106.9476408539766	0	0	52.52600222389837	0.6490008162693826	24.36008321579045	12.84557498452074	123.4743924192689	0	0
16.85999999999973	-4.423783264338898	-6.923377209198659	35.07180959782117	0	0.9399999999999999	0	43.6650954615862	-10.66270958636333	-10.66075502229297	52.86581854334418	0.9226825953432285	0	0	0	43.6650954615862	-10.66270958636333	-10.66075502229297	52.86581854334418	0.9226825953432285	0	0	0	-5.513555763049507	-2.661017392983925	2.729812578093079	75.16277833210754	16.81748315705955	6.134694703268811	22.41687914282508	106.5581374021955	0	0	52.4443469381196	0.5355953284269978	24.3191763123426	12.88210038314408	123.3897463970927	0	0
16.87999999999973	-4.435724181411996	-6.861645775560472	34.98230494261434	0	0.9399999999999999	0	43.66533663983828	-10.66229359885092	-10.66048853264237	52.86607824890728	0.9226871280603903	0	0	0	43.66533663983828	-10.66229359885092	-10.66048853264237	52.86607824890728	0.9226871280603903	0	0	0	-5.491737730827334	-2.597810347401802	2.698092846494883	75.07313406482395	16.84025358142339	6.271518971319612	22.28369149251341	106.4151812350952	0	0	52.38001505215239	0.4469989393958769	24.27588042955913	12.89348810535732	123.3501868549274	0	0
16.89999999999973	-4.462976177811385	-6.785119259142268	34.83907243846755	0	0.9399999999999999	0	43.66588931608244	-10.66133416222511	-10.65987516395364	52.86666942178488	0.9226974459735531	0	0	0	43.66588931608244	-10.66133416222511	-10.65987516395364	52.86666942178488	0.9226974459735531	0	0	0	-5.466503479040909	-2.527240235817202	2.749423435006193	74.57269407963453	16.30526943936214	5.917973218504061	22.59097866388143	106.7864225854573	0	0	52.30148682530995	0.4016984288467507	24.22128210390797	12.93461508303039	123.3145030045353	0	0
16.91999999999973	-4.483554909368531	-6.719311123050463	34.74156521829866	0	0.9399999999999999	0	43.66617806508932	-10.66083778620113	-10.65955673512993	52.86698093951166	0.9227028829835636	0	0	0	43.66617806508932	-10.66083778620113	-10.65955673512993	52.86698093951166	0.9227028829835636	0	0	0	-5.449041476007567	-2.45696746286889	2.725969182116842	74.40353525358587	16.28965715124296	6.121836910889269	22.46009712149678	106.7502577477435	0	0	52.24860262892347	0.317690393866596	24.13668074551687	12.93685726339273	123.291091080247	0	0
16.93999999999973	-4.49965611301132	-6.650868131384692	34.64773513882356	0	0.9399999999999999	0	43.66653624238153	-10.66023078663481	-10.65916542759485	52.86737239754295	0.922709715215093	0	0	0	43.66653624238153	-10.66023078663481	-10.65916542759485	52.86737239754295	0.922709715215093	0	0	0	-5.424735591524875	-2.390134508996141	2.720945425407113	74.22769716004001	16.30614636366563	6.403724495176329	22.34410740958522	106.6796791706089	0	0	52.18387578270735	0.2680957688881846	24.04595370921618	12.94254415276869	123.2882366837119	0	0
16.95999999999973	-4.510547481913983	-6.640192170639621	34.58833479890709	0	0.9399999999999999	0	43.67164716641092	-10.65579160980696	-10.65515497292537	52.87336729018795	0.9228143458300518	0	0	0	43.67164716641092	-10.65579160980696	-10.65515497292537	52.87336729018795	0.9228143458300518	0	0	0	-5.437890553634101	-2.368854741337434	2.66907480535893	74.17834025031136	16.46089891423946	6.621702704198156	22.31858886390591	106.6079774116919	0	0	52.196874152322	0.1812546603928621	24.03070023724094	12.89209477793411	123.2722936280386	0	0
16.97999999999973	-4.522885946674347	-6.609585456816513	34.60009934170188	0	0.9399999999999999	0	43.67195543890821	-10.65526199601394	-10.65481519970647	52.8736991721179	0.9228201382624573	0	0	0	43.67195543890821	-10.65526199601394	-10.65481519970647	52.8736991721179	0.9228201382624573	0	0	0	-5.437726575898845	-2.325635051638043	2.60278806409457	74.12216766268354	16.78496201433198	6.864752972860882	22.1862403876302	106.8251169376632	0	0	52.18232563265367	0.1655094870495377	23.94774467455548	12.87407909742629	123.3302068878212	0	0
16.99999999999973	-4.535434356089859	-6.568975944129329	34.58464710847897	0	0.9399999999999999	0	43.67244759386706	-10.65509364795495	-10.65452909574082	52.87431142938956	0.9228308241677171	0	0	0	43.67244759386706	-10.65509364795495	-10.65452909574082	52.87431142938956	0.9228308241677171	0	0	0	-5.425485342338709	-2.285567439714237	2.607134084477845	74.08686841875708	16.75906755630986	6.936071198192741	22.13292549350453	106.9380755167332	0	0	52.15426942393682	0.1761909970274453	23.94724728307922	12.81935532364303	123.3489601295519	0	0
17.01999999999973	-4.545571769703459	-6.542356861699675	34.60003741740697	0	0.9399999999999999	0	43.67290774689749	-10.65430079426222	-10.65402095828678	52.87480529310496	0.9228394437156069	0	0	0	43.67290774689749	-10.65430079426222	-10.65402095828678	52.87480529310496	0.9228394437156069	0	0	0	-5.421563775943166	-2.25409354981629	2.584566332681145	74.10082626869719	16.94007436281215	6.901297767081214	21.98548760899627	107.2211141451147	0	0	52.14186734768569	0.1509815858742662	23.94653280853776	12.8080166740644	123.3681207687138	0	0
